<svg width="172" height="54" viewBox="0 0 172 54" fill="none" xmlns="http://www.w3.org/2000/svg">
<rect width="172" height="54" rx="15" fill="#F0BF5F"/>
<path d="M22.946 29.68C22.946 30.408 23.002 30.94 23.114 31.276C23.226 31.584 23.436 31.794 23.744 31.906C24.08 32.018 24.612 32.074 25.34 32.074H26.768C28.952 32.074 30.842 31.5 32.438 30.352C34.034 29.176 35.098 27.594 35.63 25.606C35.63 25.55 35.686 25.522 35.798 25.522C35.854 25.522 35.91 25.55 35.966 25.606C36.05 25.634 36.092 25.662 36.092 25.69C35.84 28.462 35.714 30.772 35.714 32.62C35.714 32.844 35.658 33.012 35.546 33.124C35.462 33.208 35.308 33.25 35.084 33.25H15.26C15.204 33.25 15.176 33.166 15.176 32.998C15.176 32.83 15.204 32.746 15.26 32.746C16.156 32.746 16.8 32.676 17.192 32.536C17.612 32.396 17.892 32.13 18.032 31.738C18.2 31.318 18.284 30.688 18.284 29.848V10.402C18.284 9.562 18.2 8.946 18.032 8.554C17.892 8.162 17.612 7.896 17.192 7.756C16.772 7.588 16.128 7.504 15.26 7.504C15.204 7.504 15.176 7.42 15.176 7.252C15.176 7.084 15.204 7 15.26 7L17.402 7.042C18.69 7.098 19.754 7.126 20.594 7.126C21.434 7.126 22.498 7.098 23.786 7.042L25.928 7C26.012 7 26.054 7.084 26.054 7.252C26.054 7.42 26.012 7.504 25.928 7.504C25.06 7.504 24.416 7.588 23.996 7.756C23.576 7.896 23.296 8.176 23.156 8.596C23.016 8.988 22.946 9.604 22.946 10.444V29.68Z" fill="white"/>
<path d="M54.4847 30.982C54.5967 30.982 54.6667 31.052 54.6947 31.192C54.7507 31.304 54.7227 31.388 54.6107 31.444L50.2847 33.502C50.1727 33.558 50.0327 33.586 49.8647 33.586C49.4167 33.586 48.9827 33.348 48.5627 32.872C48.1707 32.396 47.8907 31.752 47.7227 30.94L45.9167 32.2C45.2727 32.676 44.6707 33.026 44.1107 33.25C43.5507 33.446 42.9207 33.544 42.2207 33.544C41.0167 33.544 40.1067 33.278 39.4907 32.746C38.8747 32.214 38.5667 31.472 38.5667 30.52C38.5667 29.764 38.7487 29.162 39.1127 28.714C39.4767 28.238 39.9247 27.874 40.4567 27.622C41.0167 27.342 41.7867 27.034 42.7667 26.698L43.8167 26.32L47.5967 24.934V22.54C47.5967 20.748 47.4427 19.446 47.1347 18.634C46.8547 17.822 46.3647 17.416 45.6647 17.416C44.1807 17.416 43.3407 18.564 43.1447 20.86C43.0607 21.7 42.8087 22.302 42.3887 22.666C41.9967 23.03 41.4367 23.212 40.7087 23.212C40.0087 23.212 39.4907 23.072 39.1547 22.792C38.8467 22.484 38.6927 22.092 38.6927 21.616C38.6927 20.776 39.1827 19.978 40.1627 19.222C41.1427 18.438 42.3187 17.808 43.6907 17.332C45.0907 16.856 46.3227 16.618 47.3867 16.618C48.6187 16.618 49.6127 17.01 50.3687 17.794C51.1527 18.55 51.5447 19.712 51.5447 21.28V28.714C51.5447 29.526 51.6847 30.156 51.9647 30.604C52.2727 31.052 52.6927 31.276 53.2247 31.276C53.6167 31.276 54.0227 31.178 54.4427 30.982H54.4847ZM47.6387 30.226C47.6107 30.114 47.5967 29.932 47.5967 29.68V25.648L45.7907 26.488C45.7067 26.516 45.4267 26.628 44.9507 26.824C44.4747 26.992 44.0547 27.286 43.6907 27.706C43.3547 28.126 43.1867 28.616 43.1867 29.176C43.1867 29.848 43.3967 30.38 43.8167 30.772C44.2647 31.136 44.7687 31.318 45.3287 31.318C45.7767 31.318 46.2387 31.164 46.7147 30.856L47.6387 30.226Z" fill="white"/>
<path d="M65.0645 31.528C66.7165 31.556 68.0605 31.654 69.0965 31.822C70.1605 31.99 71.0425 32.41 71.7425 33.082C72.4705 33.726 72.8345 34.72 72.8345 36.064C72.8345 37.632 72.3445 39.102 71.3645 40.474C70.4125 41.874 69.1105 42.994 67.4585 43.834C65.8345 44.674 64.0845 45.094 62.2085 45.094C60.2765 45.094 58.6945 44.646 57.4625 43.75C56.2305 42.882 55.6145 41.734 55.6145 40.306C55.6145 38.346 57.0285 36.442 59.8565 34.594C57.8405 34.202 56.8325 33.194 56.8325 31.57C56.8325 29.834 57.8125 28.308 59.7725 26.992C58.7085 26.488 57.8685 25.788 57.2525 24.892C56.6645 23.968 56.3705 23.002 56.3705 21.994C56.3705 20.874 56.7345 19.922 57.4625 19.138C58.1905 18.354 59.1145 17.766 60.2345 17.374C61.3825 16.954 62.5445 16.744 63.7205 16.744C65.4845 16.744 66.9965 17.192 68.2565 18.088C69.7125 17.108 71.2245 16.618 72.7925 16.618C73.0165 16.618 73.1285 17.01 73.1285 17.794C73.1285 18.214 73.0725 18.662 72.9605 19.138C72.8485 19.586 72.7365 19.768 72.6245 19.684C71.4765 19.208 70.4405 18.97 69.5165 18.97H69.1805C69.9365 19.866 70.3145 20.874 70.3145 21.994C70.3145 23.114 69.9505 24.108 69.2225 24.976C68.4945 25.844 67.5565 26.516 66.4085 26.992C65.2885 27.44 64.1265 27.664 62.9225 27.664C62.0545 27.664 61.2565 27.538 60.5285 27.286C60.0805 27.762 59.8565 28.364 59.8565 29.092C59.8565 29.848 60.0525 30.394 60.4445 30.73C60.8645 31.066 61.4105 31.276 62.0825 31.36C62.7545 31.444 63.7485 31.5 65.0645 31.528ZM62.3345 17.542C61.0745 17.542 60.4445 18.606 60.4445 20.734C60.4445 21.91 60.6125 22.974 60.9485 23.926C61.2845 24.85 61.7185 25.578 62.2505 26.11C62.8105 26.642 63.3985 26.908 64.0145 26.908C64.6305 26.908 65.1485 26.6 65.5685 25.984C65.9885 25.368 66.1985 24.43 66.1985 23.17C66.1985 21.966 66.0025 20.944 65.6105 20.104C65.2185 19.236 64.7145 18.592 64.0985 18.172C63.5105 17.752 62.9225 17.542 62.3345 17.542ZM64.7285 43.75C66.1565 43.75 67.2905 43.302 68.1305 42.406C68.9705 41.51 69.3905 40.292 69.3905 38.752C69.3905 37.548 69.1245 36.666 68.5925 36.106C68.0885 35.574 67.4165 35.238 66.5765 35.098C65.7645 34.986 64.5745 34.916 63.0065 34.888C62.7545 34.888 62.4045 34.874 61.9565 34.846C61.5085 34.818 61.1305 34.79 60.8225 34.762C59.8705 35.462 59.3945 36.582 59.3945 38.122C59.3945 39.914 59.9125 41.3 60.9485 42.28C62.0125 43.26 63.2725 43.75 64.7285 43.75Z" fill="white"/>
<path d="M82.9755 33.796C81.2395 33.796 79.7135 33.404 78.3975 32.62C77.1095 31.808 76.1155 30.73 75.4155 29.386C74.7155 28.014 74.3655 26.53 74.3655 24.934C74.3655 23.114 74.8275 21.574 75.7515 20.314C76.6755 19.026 77.8515 18.074 79.2795 17.458C80.7075 16.814 82.1775 16.492 83.6895 16.492C85.4255 16.492 86.9375 16.898 88.2255 17.71C89.5135 18.522 90.4935 19.6 91.1655 20.944C91.8655 22.26 92.2155 23.674 92.2155 25.186C92.2155 26.866 91.7955 28.364 90.9555 29.68C90.1155 30.968 88.9815 31.976 87.5535 32.704C86.1535 33.432 84.6275 33.796 82.9755 33.796ZM84.2355 32.914C85.3275 32.914 86.1535 32.382 86.7135 31.318C87.3015 30.226 87.5955 28.672 87.5955 26.656C87.5955 24.696 87.3435 23.016 86.8395 21.616C86.3355 20.216 85.6775 19.166 84.8655 18.466C84.0535 17.738 83.1855 17.374 82.2615 17.374C80.0215 17.374 78.9015 19.376 78.9015 23.38C78.9015 25.256 79.1395 26.922 79.6155 28.378C80.0915 29.806 80.7355 30.926 81.5475 31.738C82.3595 32.522 83.2555 32.914 84.2355 32.914Z" fill="white"/>
<path d="M103.524 33.796C101.788 33.796 100.262 33.404 98.9463 32.62C97.6583 31.808 96.6643 30.73 95.9643 29.386C95.2643 28.014 94.9143 26.53 94.9143 24.934C94.9143 23.114 95.3763 21.574 96.3003 20.314C97.2243 19.026 98.4003 18.074 99.8283 17.458C101.256 16.814 102.726 16.492 104.238 16.492C105.974 16.492 107.486 16.898 108.774 17.71C110.062 18.522 111.042 19.6 111.714 20.944C112.414 22.26 112.764 23.674 112.764 25.186C112.764 26.866 112.344 28.364 111.504 29.68C110.664 30.968 109.53 31.976 108.102 32.704C106.702 33.432 105.176 33.796 103.524 33.796ZM104.784 32.914C105.876 32.914 106.702 32.382 107.262 31.318C107.85 30.226 108.144 28.672 108.144 26.656C108.144 24.696 107.892 23.016 107.388 21.616C106.884 20.216 106.226 19.166 105.414 18.466C104.602 17.738 103.734 17.374 102.81 17.374C100.57 17.374 99.4503 19.376 99.4503 23.38C99.4503 25.256 99.6883 26.922 100.164 28.378C100.64 29.806 101.284 30.926 102.096 31.738C102.908 32.522 103.804 32.914 104.784 32.914Z" fill="white"/>
<path d="M135.497 32.746C135.581 32.746 135.623 32.83 135.623 32.998C135.623 33.166 135.581 33.25 135.497 33.25C134.769 33.25 134.195 33.236 133.775 33.208L131.255 33.166L128.819 33.208C128.371 33.236 127.783 33.25 127.055 33.25C126.971 33.25 126.929 33.166 126.929 32.998C126.929 32.83 126.971 32.746 127.055 32.746C127.923 32.746 128.511 32.55 128.819 32.158C129.127 31.738 129.281 30.968 129.281 29.848V23.8C129.281 22.288 129.001 21.168 128.441 20.44C127.909 19.712 127.055 19.348 125.879 19.348C125.207 19.348 124.507 19.488 123.779 19.768C123.079 20.048 122.463 20.426 121.931 20.902V29.848C121.931 30.968 122.085 31.738 122.393 32.158C122.729 32.55 123.331 32.746 124.199 32.746C124.283 32.746 124.325 32.83 124.325 32.998C124.325 33.166 124.283 33.25 124.199 33.25C123.471 33.25 122.897 33.236 122.477 33.208L119.957 33.166L117.479 33.208C117.059 33.236 116.485 33.25 115.757 33.25C115.673 33.25 115.631 33.166 115.631 32.998C115.631 32.83 115.673 32.746 115.757 32.746C116.625 32.746 117.213 32.55 117.521 32.158C117.829 31.738 117.983 30.968 117.983 29.848V21.952C117.983 21.084 117.871 20.454 117.647 20.062C117.451 19.642 117.129 19.432 116.681 19.432C116.205 19.432 115.533 19.628 114.665 20.02H114.581C114.497 20.02 114.427 19.95 114.371 19.81C114.343 19.67 114.357 19.586 114.413 19.558L120.251 16.702C120.419 16.646 120.517 16.618 120.545 16.618C120.853 16.618 121.147 16.926 121.427 17.542C121.707 18.13 121.875 18.942 121.931 19.978C123.863 17.682 125.991 16.534 128.315 16.534C129.827 16.534 131.017 17.024 131.885 18.004C132.781 18.956 133.229 20.216 133.229 21.784V29.848C133.229 30.968 133.383 31.738 133.691 32.158C134.027 32.55 134.629 32.746 135.497 32.746Z" fill="white"/>
<path d="M153.825 30.982C153.937 30.982 154.007 31.052 154.035 31.192C154.091 31.304 154.063 31.388 153.951 31.444L149.625 33.502C149.513 33.558 149.373 33.586 149.205 33.586C148.757 33.586 148.323 33.348 147.903 32.872C147.511 32.396 147.231 31.752 147.063 30.94L145.257 32.2C144.613 32.676 144.011 33.026 143.451 33.25C142.891 33.446 142.261 33.544 141.561 33.544C140.357 33.544 139.447 33.278 138.831 32.746C138.215 32.214 137.907 31.472 137.907 30.52C137.907 29.764 138.089 29.162 138.453 28.714C138.817 28.238 139.265 27.874 139.797 27.622C140.357 27.342 141.127 27.034 142.107 26.698L143.157 26.32L146.937 24.934V22.54C146.937 20.748 146.783 19.446 146.475 18.634C146.195 17.822 145.705 17.416 145.005 17.416C143.521 17.416 142.681 18.564 142.485 20.86C142.401 21.7 142.149 22.302 141.729 22.666C141.337 23.03 140.777 23.212 140.049 23.212C139.349 23.212 138.831 23.072 138.495 22.792C138.187 22.484 138.033 22.092 138.033 21.616C138.033 20.776 138.523 19.978 139.503 19.222C140.483 18.438 141.659 17.808 143.031 17.332C144.431 16.856 145.663 16.618 146.727 16.618C147.959 16.618 148.953 17.01 149.709 17.794C150.493 18.55 150.885 19.712 150.885 21.28V28.714C150.885 29.526 151.025 30.156 151.305 30.604C151.613 31.052 152.033 31.276 152.565 31.276C152.957 31.276 153.363 31.178 153.783 30.982H153.825ZM146.979 30.226C146.951 30.114 146.937 29.932 146.937 29.68V25.648L145.131 26.488C145.047 26.516 144.767 26.628 144.291 26.824C143.815 26.992 143.395 27.286 143.031 27.706C142.695 28.126 142.527 28.616 142.527 29.176C142.527 29.848 142.737 30.38 143.157 30.772C143.605 31.136 144.109 31.318 144.669 31.318C145.117 31.318 145.579 31.164 146.055 30.856L146.979 30.226Z" fill="white"/>
<path d="M85.51 46.43C84.85 46.43 84.29 46.29 83.83 46.01C83.38 45.72 83.04 45.35 82.81 44.9C82.59 44.44 82.48 43.96 82.48 43.46C82.48 42.83 82.655 42.28 83.005 41.81C83.355 41.33 83.8 40.965 84.34 40.715C84.89 40.455 85.45 40.325 86.02 40.325C86.5 40.325 86.93 40.425 87.31 40.625C87.7 40.825 87.895 41.1 87.895 41.45C87.895 41.64 87.82 41.805 87.67 41.945C87.53 42.075 87.33 42.14 87.07 42.14C86.83 42.14 86.64 42.08 86.5 41.96C86.36 41.83 86.245 41.635 86.155 41.375C86.065 41.095 85.975 40.905 85.885 40.805C85.805 40.695 85.655 40.64 85.435 40.64C85.005 40.64 84.66 40.855 84.4 41.285C84.15 41.705 84.025 42.265 84.025 42.965C84.025 43.795 84.21 44.46 84.58 44.96C84.95 45.45 85.54 45.695 86.35 45.695C86.62 45.695 86.85 45.665 87.04 45.605C87.24 45.545 87.49 45.445 87.79 45.305H87.805C87.835 45.305 87.86 45.32 87.88 45.35C87.91 45.38 87.915 45.405 87.895 45.425C87.525 45.765 87.155 46.02 86.785 46.19C86.415 46.35 85.99 46.43 85.51 46.43Z" fill="white"/>
<path d="M94.1042 45.26C94.1242 45.26 94.1442 45.28 94.1642 45.32C94.1942 45.36 94.1992 45.39 94.1792 45.41C93.8092 45.77 93.4342 46.03 93.0542 46.19C92.6742 46.35 92.2592 46.43 91.8092 46.43C91.1792 46.43 90.6342 46.3 90.1742 46.04C89.7142 45.77 89.3642 45.415 89.1242 44.975C88.8842 44.525 88.7642 44.04 88.7642 43.52C88.7642 42.94 88.9092 42.405 89.1992 41.915C89.4892 41.425 89.8892 41.04 90.3992 40.76C90.9192 40.47 91.5042 40.325 92.1542 40.325C92.7742 40.325 93.2542 40.465 93.5942 40.745C93.9342 41.025 94.1042 41.46 94.1042 42.05C94.1042 42.36 94.0492 42.515 93.9392 42.515L90.2942 42.53C90.2842 42.6 90.2792 42.715 90.2792 42.875C90.2792 43.755 90.4792 44.445 90.8792 44.945C91.2892 45.445 91.8742 45.695 92.6342 45.695C92.9042 45.695 93.1342 45.665 93.3242 45.605C93.5142 45.545 93.7642 45.435 94.0742 45.275L94.1042 45.26ZM91.5842 40.625C91.2542 40.625 90.9792 40.77 90.7592 41.06C90.5392 41.34 90.3942 41.73 90.3242 42.23L92.4992 42.2C92.4892 41.69 92.4142 41.3 92.2742 41.03C92.1342 40.76 91.9042 40.625 91.5842 40.625Z" fill="white"/>
<path d="M96.2037 46.25C96.1737 46.25 96.1587 46.22 96.1587 46.16C96.1587 46.1 96.1737 46.07 96.2037 46.07C96.4437 46.07 96.6187 46.045 96.7287 45.995C96.8487 45.945 96.9287 45.85 96.9687 45.71C97.0087 45.56 97.0287 45.335 97.0287 45.035V41.705C97.0287 41.355 96.9987 41.115 96.9387 40.985C96.8887 40.855 96.7837 40.79 96.6237 40.79C96.3337 40.79 96.0487 40.945 95.7687 41.255C95.4987 41.565 95.3037 41.95 95.1837 42.41C95.1737 42.43 95.1387 42.44 95.0787 42.44C95.0287 42.44 95.0037 42.43 95.0037 42.41L94.9737 41.435C94.9537 41.035 94.9437 40.75 94.9437 40.58C94.9437 40.52 94.9487 40.485 94.9587 40.475C94.9687 40.455 95.0037 40.445 95.0637 40.445C95.2737 40.445 95.4587 40.45 95.6187 40.46L97.6887 40.475L99.8037 40.46C99.9737 40.45 100.169 40.445 100.389 40.445C100.459 40.445 100.499 40.455 100.509 40.475C100.519 40.485 100.524 40.52 100.524 40.58C100.474 41.58 100.449 42.19 100.449 42.41C100.449 42.43 100.419 42.44 100.359 42.44C100.309 42.44 100.279 42.43 100.269 42.41C100.149 41.95 99.9487 41.565 99.6687 41.255C99.3987 40.945 99.1187 40.79 98.8287 40.79C98.6687 40.79 98.5587 40.855 98.4987 40.985C98.4487 41.115 98.4237 41.355 98.4237 41.705V45.035C98.4237 45.335 98.4437 45.56 98.4837 45.71C98.5237 45.85 98.5987 45.945 98.7087 45.995C98.8287 46.045 99.0037 46.07 99.2337 46.07C99.2637 46.07 99.2787 46.1 99.2787 46.16C99.2787 46.22 99.2637 46.25 99.2337 46.25C98.9537 46.25 98.7387 46.245 98.5887 46.235L97.7487 46.22L96.8787 46.235C96.7187 46.245 96.4937 46.25 96.2037 46.25Z" fill="white"/>
<path d="M104.812 42.815C106.352 42.815 107.122 43.335 107.122 44.375C107.122 44.945 106.902 45.405 106.462 45.755C106.032 46.105 105.467 46.28 104.767 46.28L103.957 46.25C103.477 46.23 103.132 46.22 102.922 46.22L102.052 46.235C101.892 46.245 101.667 46.25 101.377 46.25C101.347 46.25 101.332 46.22 101.332 46.16C101.332 46.1 101.347 46.07 101.377 46.07C101.617 46.07 101.792 46.045 101.902 45.995C102.022 45.945 102.102 45.85 102.142 45.71C102.182 45.56 102.202 45.335 102.202 45.035V41.675C102.202 41.375 102.182 41.155 102.142 41.015C102.102 40.865 102.022 40.765 101.902 40.715C101.792 40.665 101.622 40.64 101.392 40.64C101.362 40.64 101.347 40.61 101.347 40.55C101.347 40.49 101.362 40.46 101.392 40.46C101.672 40.46 101.887 40.465 102.037 40.475L102.922 40.49L103.852 40.475C104.032 40.465 104.277 40.46 104.587 40.46C104.607 40.46 104.617 40.49 104.617 40.55C104.617 40.61 104.607 40.64 104.587 40.64C104.297 40.64 104.082 40.67 103.942 40.73C103.812 40.79 103.722 40.895 103.672 41.045C103.622 41.185 103.597 41.405 103.597 41.705V42.95C103.967 42.86 104.372 42.815 104.812 42.815ZM104.452 46.055C104.852 46.055 105.147 45.95 105.337 45.74C105.527 45.52 105.622 45.175 105.622 44.705C105.622 43.665 105.172 43.145 104.272 43.145C104.062 43.145 103.837 43.175 103.597 43.235V45.035C103.597 45.395 103.657 45.655 103.777 45.815C103.897 45.975 104.122 46.055 104.452 46.055Z" fill="white"/>
<path d="M114.486 46.445C113.866 46.445 113.321 46.305 112.851 46.025C112.391 45.735 112.036 45.35 111.786 44.87C111.536 44.38 111.411 43.85 111.411 43.28C111.411 42.63 111.576 42.08 111.906 41.63C112.236 41.17 112.656 40.83 113.166 40.61C113.676 40.38 114.201 40.265 114.741 40.265C115.361 40.265 115.901 40.41 116.361 40.7C116.821 40.99 117.171 41.375 117.411 41.855C117.661 42.325 117.786 42.83 117.786 43.37C117.786 43.97 117.636 44.505 117.336 44.975C117.036 45.435 116.631 45.795 116.121 46.055C115.621 46.315 115.076 46.445 114.486 46.445ZM114.936 46.13C115.326 46.13 115.621 45.94 115.821 45.56C116.031 45.17 116.136 44.615 116.136 43.895C116.136 43.195 116.046 42.595 115.866 42.095C115.686 41.595 115.451 41.22 115.161 40.97C114.871 40.71 114.561 40.58 114.231 40.58C113.431 40.58 113.031 41.295 113.031 42.725C113.031 43.395 113.116 43.99 113.286 44.51C113.456 45.02 113.686 45.42 113.976 45.71C114.266 45.99 114.586 46.13 114.936 46.13Z" fill="white"/>
<path d="M119.92 46.25C119.89 46.25 119.875 46.22 119.875 46.16C119.875 46.1 119.89 46.07 119.92 46.07C120.16 46.07 120.335 46.045 120.445 45.995C120.565 45.945 120.645 45.85 120.685 45.71C120.725 45.56 120.745 45.335 120.745 45.035V41.705C120.745 41.355 120.715 41.115 120.655 40.985C120.605 40.855 120.5 40.79 120.34 40.79C120.05 40.79 119.765 40.945 119.485 41.255C119.215 41.565 119.02 41.95 118.9 42.41C118.89 42.43 118.855 42.44 118.795 42.44C118.745 42.44 118.72 42.43 118.72 42.41L118.69 41.435C118.67 41.035 118.66 40.75 118.66 40.58C118.66 40.52 118.665 40.485 118.675 40.475C118.685 40.455 118.72 40.445 118.78 40.445C118.99 40.445 119.175 40.45 119.335 40.46L121.405 40.475L123.52 40.46C123.69 40.45 123.885 40.445 124.105 40.445C124.175 40.445 124.215 40.455 124.225 40.475C124.235 40.485 124.24 40.52 124.24 40.58C124.19 41.58 124.165 42.19 124.165 42.41C124.165 42.43 124.135 42.44 124.075 42.44C124.025 42.44 123.995 42.43 123.985 42.41C123.865 41.95 123.665 41.565 123.385 41.255C123.115 40.945 122.835 40.79 122.545 40.79C122.385 40.79 122.275 40.855 122.215 40.985C122.165 41.115 122.14 41.355 122.14 41.705V45.035C122.14 45.335 122.16 45.56 122.2 45.71C122.24 45.85 122.315 45.945 122.425 45.995C122.545 46.045 122.72 46.07 122.95 46.07C122.98 46.07 122.995 46.1 122.995 46.16C122.995 46.22 122.98 46.25 122.95 46.25C122.67 46.25 122.455 46.245 122.305 46.235L121.465 46.22L120.595 46.235C120.435 46.245 120.21 46.25 119.92 46.25Z" fill="white"/>
<path d="M130.432 45.26C130.452 45.26 130.472 45.28 130.492 45.32C130.522 45.36 130.527 45.39 130.507 45.41C130.137 45.77 129.762 46.03 129.382 46.19C129.002 46.35 128.587 46.43 128.137 46.43C127.507 46.43 126.962 46.3 126.502 46.04C126.042 45.77 125.692 45.415 125.452 44.975C125.212 44.525 125.092 44.04 125.092 43.52C125.092 42.94 125.237 42.405 125.527 41.915C125.817 41.425 126.217 41.04 126.727 40.76C127.247 40.47 127.832 40.325 128.482 40.325C129.102 40.325 129.582 40.465 129.922 40.745C130.262 41.025 130.432 41.46 130.432 42.05C130.432 42.36 130.377 42.515 130.267 42.515L126.622 42.53C126.612 42.6 126.607 42.715 126.607 42.875C126.607 43.755 126.807 44.445 127.207 44.945C127.617 45.445 128.202 45.695 128.962 45.695C129.232 45.695 129.462 45.665 129.652 45.605C129.842 45.545 130.092 45.435 130.402 45.275L130.432 45.26ZM127.912 40.625C127.582 40.625 127.307 40.77 127.087 41.06C126.867 41.34 126.722 41.73 126.652 42.23L128.827 42.2C128.817 41.69 128.742 41.3 128.602 41.03C128.462 40.76 128.232 40.625 127.912 40.625Z" fill="white"/>
<path d="M137.482 46.07C137.532 46.07 137.557 46.1 137.557 46.16C137.557 46.22 137.532 46.25 137.482 46.25C137.302 46.25 137.022 46.24 136.642 46.22C136.242 46.2 135.952 46.19 135.772 46.19C135.612 46.19 135.352 46.2 134.992 46.22C134.652 46.24 134.412 46.25 134.272 46.25C134.232 46.25 134.212 46.22 134.212 46.16C134.212 46.1 134.232 46.07 134.272 46.07C134.492 46.07 134.652 46.045 134.752 45.995C134.852 45.935 134.902 45.85 134.902 45.74C134.902 45.66 134.872 45.555 134.812 45.425C134.762 45.285 134.702 45.14 134.632 44.99L133.372 42.305L132.472 44.405C132.292 44.825 132.202 45.165 132.202 45.425C132.202 45.855 132.442 46.07 132.922 46.07C132.972 46.07 132.997 46.1 132.997 46.16C132.997 46.22 132.972 46.25 132.922 46.25C132.812 46.25 132.657 46.24 132.457 46.22C132.257 46.2 132.067 46.19 131.887 46.19C131.677 46.19 131.472 46.2 131.272 46.22C131.092 46.24 130.932 46.25 130.792 46.25C130.742 46.25 130.717 46.22 130.717 46.16C130.717 46.1 130.742 46.07 130.792 46.07C130.972 46.07 131.162 45.945 131.362 45.695C131.572 45.435 131.827 44.96 132.127 44.27L133.867 40.235C133.887 40.195 133.917 40.175 133.957 40.175C133.997 40.175 134.027 40.195 134.047 40.235L135.907 44.195C136.167 44.765 136.367 45.175 136.507 45.425C136.647 45.665 136.787 45.835 136.927 45.935C137.067 46.025 137.252 46.07 137.482 46.07Z" fill="white"/>
<path d="M142.942 45.26C142.962 45.26 142.982 45.28 143.002 45.32C143.032 45.36 143.037 45.39 143.017 45.41C142.647 45.77 142.272 46.03 141.892 46.19C141.512 46.35 141.097 46.43 140.647 46.43C140.017 46.43 139.472 46.3 139.012 46.04C138.552 45.77 138.202 45.415 137.962 44.975C137.722 44.525 137.602 44.04 137.602 43.52C137.602 42.94 137.747 42.405 138.037 41.915C138.327 41.425 138.727 41.04 139.237 40.76C139.757 40.47 140.342 40.325 140.992 40.325C141.612 40.325 142.092 40.465 142.432 40.745C142.772 41.025 142.942 41.46 142.942 42.05C142.942 42.36 142.887 42.515 142.777 42.515L139.132 42.53C139.122 42.6 139.117 42.715 139.117 42.875C139.117 43.755 139.317 44.445 139.717 44.945C140.127 45.445 140.712 45.695 141.472 45.695C141.742 45.695 141.972 45.665 142.162 45.605C142.352 45.545 142.602 45.435 142.912 45.275L142.942 45.26ZM140.422 40.625C140.092 40.625 139.817 40.77 139.597 41.06C139.377 41.34 139.232 41.73 139.162 42.23L141.337 42.2C141.327 41.69 141.252 41.3 141.112 41.03C140.972 40.76 140.742 40.625 140.422 40.625Z" fill="white"/>
<path d="M147.322 39.215C146.932 39.215 146.562 39.15 146.212 39.02C145.872 38.89 145.597 38.72 145.387 38.51C145.187 38.29 145.087 38.055 145.087 37.805C145.087 37.625 145.142 37.485 145.252 37.385C145.362 37.275 145.522 37.22 145.732 37.22C145.922 37.22 146.062 37.265 146.152 37.355C146.252 37.435 146.322 37.535 146.362 37.655C146.402 37.765 146.442 37.93 146.482 38.15C146.522 38.41 146.592 38.615 146.692 38.765C146.802 38.905 147.007 38.975 147.307 38.975C147.607 38.975 147.822 38.9 147.952 38.75C148.082 38.59 148.167 38.37 148.207 38.09C148.267 37.79 148.337 37.57 148.417 37.43C148.507 37.29 148.672 37.22 148.912 37.22C149.112 37.22 149.267 37.275 149.377 37.385C149.487 37.485 149.542 37.625 149.542 37.805C149.542 38.055 149.437 38.29 149.227 38.51C149.017 38.73 148.742 38.905 148.402 39.035C148.062 39.155 147.702 39.215 147.322 39.215ZM150.802 46.07C150.822 46.07 150.832 46.1 150.832 46.16C150.832 46.22 150.822 46.25 150.802 46.25C150.512 46.25 150.287 46.245 150.127 46.235L149.302 46.22L148.417 46.235C148.257 46.245 148.037 46.25 147.757 46.25C147.737 46.25 147.727 46.22 147.727 46.16C147.727 46.1 147.737 46.07 147.757 46.07C147.997 46.07 148.172 46.045 148.282 45.995C148.402 45.945 148.482 45.85 148.522 45.71C148.562 45.56 148.582 45.335 148.582 45.035V42.035L144.937 46.31C144.907 46.35 144.842 46.37 144.742 46.37C144.692 46.37 144.642 46.36 144.592 46.34C144.542 46.33 144.517 46.32 144.517 46.31V41.675C144.517 41.375 144.497 41.155 144.457 41.015C144.417 40.865 144.342 40.765 144.232 40.715C144.122 40.665 143.947 40.64 143.707 40.64C143.687 40.64 143.677 40.61 143.677 40.55C143.677 40.49 143.687 40.46 143.707 40.46C143.937 40.46 144.112 40.465 144.232 40.475L145.192 40.49L146.407 40.475C146.497 40.465 146.607 40.46 146.737 40.46C146.767 40.46 146.782 40.49 146.782 40.55C146.782 40.61 146.767 40.64 146.737 40.64C146.497 40.64 146.317 40.665 146.197 40.715C146.087 40.765 146.012 40.865 145.972 41.015C145.932 41.155 145.912 41.375 145.912 41.675V44.705L149.572 40.415C149.602 40.365 149.667 40.34 149.767 40.34C149.827 40.34 149.877 40.35 149.917 40.37C149.967 40.38 149.992 40.395 149.992 40.415V45.035C149.992 45.335 150.012 45.56 150.052 45.71C150.092 45.85 150.167 45.945 150.277 45.995C150.387 46.045 150.562 46.07 150.802 46.07Z" fill="white"/>
</svg>
